<svg width="20" height="20" viewBox="0 0 20 20" fill="none" xmlns="http://www.w3.org/2000/svg">
<path fill-rule="evenodd" clip-rule="evenodd" d="M3.33337 10C3.33337 13.6819 6.31814 16.6667 10 16.6667C13.6819 16.6667 16.6667 13.6819 16.6667 10C16.6667 6.31811 13.6819 3.33334 10 3.33334C6.31814 3.33334 3.33337 6.31811 3.33337 10ZM10.0352 5.92594H9.97264C9.77911 5.92594 9.61821 6.07494 9.60336 6.2679L9.28278 10.4356C9.26915 10.6127 9.38321 10.7745 9.5546 10.8213L12.9761 11.7544C13.0003 11.761 13.0253 11.7644 13.0505 11.7644C13.2067 11.7644 13.3334 11.6377 13.3334 11.4815V11.3261C13.3334 11.1931 13.2622 11.0704 13.1468 11.0045L10.7408 9.62964L10.4038 6.25945C10.3848 6.07012 10.2255 5.92594 10.0352 5.92594Z" fill="#EEA734"/>
</svg>
