<svg width="26" height="27" viewBox="0 0 26 27" fill="none" xmlns="http://www.w3.org/2000/svg">
<g filter="url(#filter0_d_7_2396)">
<path fill-rule="evenodd" clip-rule="evenodd" d="M21.3333 9.99999C21.3333 14.6024 17.6023 18.3333 13 18.3333C8.39759 18.3333 4.66663 14.6024 4.66663 9.99999C4.66663 5.39762 8.39759 1.66666 13 1.66666C17.6023 1.66666 21.3333 5.39762 21.3333 9.99999ZM13.051 3.74999C12.6778 3.74999 12.3754 4.05246 12.3754 4.42559V5.32212C12.3246 5.33317 12.274 5.34498 12.2234 5.35756C11.804 5.46172 11.4275 5.6263 11.0938 5.85131C10.76 6.07631 10.4905 6.3638 10.2851 6.71381C10.0797 7.06381 9.97701 7.48464 9.97701 7.97631C9.97701 8.37631 10.0433 8.71589 10.176 8.99506C10.3086 9.27422 10.484 9.51172 10.7023 9.70756C10.9205 9.90339 11.1686 10.0638 11.4468 10.1888C11.7249 10.3138 12.0094 10.4221 12.3004 10.5138C12.5999 10.6055 12.8673 10.6909 13.1026 10.7701C13.338 10.8492 13.5348 10.9367 13.6931 11.0326C13.8514 11.1284 13.9734 11.2346 14.059 11.3513C14.1445 11.468 14.1873 11.6096 14.1873 11.7763C14.1873 11.9513 14.1531 12.1013 14.0846 12.2263C14.0162 12.3513 13.9242 12.4513 13.8086 12.5263C13.6931 12.6013 13.5583 12.6555 13.4043 12.6888C13.2503 12.7221 13.092 12.7388 12.9294 12.7388C12.5699 12.7388 12.2084 12.6492 11.8447 12.4701C11.481 12.2909 11.1879 12.068 10.9654 11.8013L9.52774 13.2263C9.92994 13.6346 10.4348 13.9492 11.0424 14.1701C11.4759 14.3276 11.9202 14.4289 12.3754 14.4741V15.5744C12.3754 15.9475 12.6778 16.25 13.051 16.25C13.4241 16.25 13.7266 15.9475 13.7266 15.5744V14.4367C13.895 14.4088 14.0614 14.3721 14.2258 14.3263C14.6451 14.2096 15.0174 14.0305 15.3426 13.7888C15.6678 13.5471 15.9266 13.2409 16.1192 12.8701C16.3117 12.4992 16.408 12.0596 16.408 11.5513C16.408 11.1096 16.3181 10.7409 16.1384 10.4451C15.9587 10.1492 15.732 9.90131 15.4581 9.70131C15.1843 9.50131 14.8805 9.34089 14.5467 9.22006C14.213 9.09922 13.8921 8.98881 13.584 8.88881C13.3701 8.82214 13.1775 8.75756 13.0064 8.69506C12.8352 8.63256 12.6876 8.56381 12.5635 8.48881C12.4394 8.41381 12.3453 8.32631 12.2811 8.22631C12.2169 8.12631 12.1849 8.00131 12.1849 7.85131C12.1849 7.6763 12.2255 7.53256 12.3068 7.42006C12.3881 7.30756 12.4886 7.21589 12.6085 7.14506C12.7283 7.07422 12.863 7.02631 13.0128 7.00131C13.1626 6.97631 13.3102 6.96381 13.4556 6.96381C13.738 6.96381 14.0311 7.03256 14.3349 7.17006C14.6387 7.30756 14.8848 7.49297 15.073 7.72631L16.4722 6.28881C16.07 5.93047 15.6015 5.65964 15.0666 5.47631C14.6122 5.32055 14.1655 5.23095 13.7266 5.20753V4.42559C13.7266 4.05246 13.4241 3.74999 13.051 3.74999Z" fill="#EEA734"/>
</g>
<defs>
<filter id="filter0_d_7_2396" x="-1" y="0" width="28" height="28" filterUnits="userSpaceOnUse" color-interpolation-filters="sRGB">
<feFlood flood-opacity="0" result="BackgroundImageFix"/>
<feColorMatrix in="SourceAlpha" type="matrix" values="0 0 0 0 0 0 0 0 0 0 0 0 0 0 0 0 0 0 127 0" result="hardAlpha"/>
<feOffset dy="4"/>
<feGaussianBlur stdDeviation="2"/>
<feComposite in2="hardAlpha" operator="out"/>
<feColorMatrix type="matrix" values="0 0 0 0 0 0 0 0 0 0 0 0 0 0 0 0 0 0 0.25 0"/>
<feBlend mode="normal" in2="BackgroundImageFix" result="effect1_dropShadow_7_2396"/>
<feBlend mode="normal" in="SourceGraphic" in2="effect1_dropShadow_7_2396" result="shape"/>
</filter>
</defs>
</svg>
